<?xml version="1.0" encoding="UTF-8"?>
<svg xmlns="http://www.w3.org/2000/svg" xmlns:xlink="http://www.w3.org/1999/xlink" width="31pt" height="52pt" viewBox="0 0 31 52" version="1.1">
<g id="surface1">
<path style=" stroke:none;fill-rule:nonzero;fill:rgb(0%,0%,0%);fill-opacity:1;" d="M 26.046875 0.0742188 C 25.929688 0.117188 25.765625 0.195312 25.675781 0.257812 C 25.585938 0.3125 19.867188 5.957031 12.964844 12.792969 C 2.808594 22.859375 0.398438 25.265625 0.3125 25.429688 C 0.15625 25.742188 0.0976562 26.113281 0.15625 26.445312 C 0.257812 27.046875 -0.761719 26 12.945312 39.582031 L 25.472656 51.992188 L 27.683594 51.992188 L 29.074219 50.617188 C 29.84375 49.867188 30.546875 49.140625 30.648438 49.007812 C 31.027344 48.507812 31.09375 47.835938 30.828125 47.28125 C 30.703125 47.027344 30.046875 46.371094 20.179688 36.59375 L 9.667969 26.179688 L 20.199219 15.738281 C 30.261719 5.773438 30.738281 5.292969 30.84375 5.042969 C 31.058594 4.5625 31.027344 3.960938 30.761719 3.515625 C 30.707031 3.425781 29.957031 2.65625 29.09375 1.800781 C 27.28125 0.0078125 27.320312 0.0351562 26.640625 0.0117188 C 26.332031 0 26.207031 0.015625 26.046875 0.0742188 Z M 26.046875 0.0742188 "/>
</g>
</svg>
