<?xml version="1.0" encoding="UTF-8"?>
<svg xmlns="http://www.w3.org/2000/svg" xmlns:xlink="http://www.w3.org/1999/xlink" width="40pt" height="40pt" viewBox="0 0 40 40" version="1.1">
<g id="surface1">
<path style=" stroke:none;fill-rule:nonzero;fill:rgb(0%,0%,0%);fill-opacity:1;" d="M 31.257812 19.074219 L 12.582031 0.402344 C 12.316406 0.132812 12.007812 0 11.660156 0 C 11.3125 0 11.007812 0.132812 10.738281 0.402344 L 8.734375 2.40625 C 8.46875 2.671875 8.335938 2.980469 8.335938 3.328125 C 8.335938 3.675781 8.46875 3.980469 8.734375 4.246094 L 24.484375 19.996094 L 8.734375 35.742188 C 8.46875 36.011719 8.335938 36.320312 8.335938 36.664062 C 8.335938 37.011719 8.46875 37.320312 8.734375 37.585938 L 10.738281 39.589844 C 11.007812 39.859375 11.3125 39.992188 11.660156 39.992188 C 12.007812 39.992188 12.316406 39.859375 12.582031 39.589844 L 31.253906 20.917969 C 31.523438 20.652344 31.65625 20.34375 31.65625 19.996094 C 31.65625 19.648438 31.523438 19.339844 31.257812 19.074219 Z M 31.257812 19.074219 "/>
</g>
</svg>
