<?xml version="1.0" standalone="no"?>
<!DOCTYPE svg PUBLIC "-//W3C//DTD SVG 1.0//EN" "http://www.w3.org/TR/2001/REC-SVG-20010904/DTD/svg10.dtd">
<svg xmlns="http://www.w3.org/2000/svg" xmlns:xlink="http://www.w3.org/1999/xlink" id="body_1" width="53" height="53">

<defs>
    <clipPath  id="1">

    <path id=""  clip-rule="evenodd" transform="matrix(1 0 0 1 0 0)"  d="M40 0L40 40L40 40L0 40L0 40L0 0L0 0L40 0z" />    </clipPath>
</defs>

<g transform="matrix(1.3333 0 0 1.3333 0 0)">
	<g clip-path="url(#1)" >
    <path id=""  transform="matrix(1 0 0 -1 0 40)"  d="M8.7421875 19.074219L8.7421875 19.074219L8.7421875 19.074219L27.417969 0.402344L27.417969 0.402344L27.417969 0.402344C 27.683594 0.132812 27.992188 -1.4705329E-15 28.339844 -1.4279575E-15L28.339844 -1.4279575E-15L28.339844 -1.4279575E-15C 28.6875 -1.3853819E-15 28.992188 0.132812 29.261719 0.402344L29.261719 0.402344L31.265625 2.40625C 31.53125 2.671875 31.66406 2.9804692 31.66406 3.328125L31.66406 3.328125L31.66406 3.328125C 31.66406 3.675781 31.53125 3.9804692 31.265625 4.2460947L31.265625 4.2460947L15.515625 19.996094L15.515625 19.996094L31.265625 35.742188L31.265625 35.742188L31.265625 35.742188C 31.53125 36.01172 31.66406 36.320312 31.66406 36.664062L31.66406 36.664062L31.66406 36.664062C 31.66406 37.01172 31.53125 37.320312 31.265625 37.585938L31.265625 37.585938L29.261719 39.589844C 28.992188 39.859375 28.6875 39.992188 28.339844 39.992188L28.339844 39.992188L28.339844 39.992188C 27.992188 39.992188 27.683594 39.859375 27.417969 39.589844L27.417969 39.589844L8.746094 20.917969C 8.4765625 20.652344 8.34375 20.34375 8.34375 19.996094L8.34375 19.996094L8.34375 19.996094C 8.34375 19.648438 8.4765625 19.339844 8.7421875 19.074219z" stroke="none" fill="#000000" fill-rule="nonzero" />
	</g>
</g>
</svg>