<?xml version="1.0" encoding="UTF-8"?>
<svg xmlns="http://www.w3.org/2000/svg" xmlns:xlink="http://www.w3.org/1999/xlink" width="31pt" height="52pt" viewBox="0 0 31 52" version="1.1">
<g id="surface1">
<path style=" stroke:none;fill-rule:nonzero;fill:rgb(0%,0%,0%);fill-opacity:1;" d="M 3.683594 0.078125 C 3.566406 0.121094 3.378906 0.21875 3.273438 0.300781 C 3.007812 0.492188 0.242188 3.230469 0.105469 3.433594 C 0 3.59375 0 3.605469 0 4.332031 L 0 5.070312 L 0.128906 5.246094 C 0.199219 5.34375 4.960938 10.0625 10.714844 15.71875 L 21.171875 26.015625 L 10.675781 36.347656 C 4.898438 42.035156 0.136719 46.753906 0.0859375 46.832031 C 0.0078125 46.96875 0 47.035156 0 47.699219 C 0 48.402344 0.00390625 48.417969 0.105469 48.589844 C 0.164062 48.683594 0.894531 49.429688 1.730469 50.246094 C 3.539062 52.027344 3.488281 51.992188 4.25 51.992188 C 5.105469 51.992188 3.496094 53.488281 17.851562 39.359375 C 29.191406 28.199219 30.445312 26.945312 30.554688 26.726562 C 30.664062 26.503906 30.671875 26.445312 30.671875 26.015625 C 30.671875 25.195312 32.152344 26.734375 17.816406 12.636719 C 3.628906 -1.320312 5.070312 0.03125 4.316406 0.0078125 C 3.988281 0 3.859375 0.015625 3.683594 0.078125 Z M 3.683594 0.078125 "/>
</g>
</svg>
